<?xml version="1.0" encoding="utf-8"?>
<!-- Svg Vector Icons : http://www.onlinewebfonts.com/icon -->
<!DOCTYPE svg PUBLIC "-//W3C//DTD SVG 1.1//EN" "http://www.w3.org/Graphics/SVG/1.1/DTD/svg11.dtd">
<svg version="1.1" xmlns="http://www.w3.org/2000/svg" xmlns:xlink="http://www.w3.org/1999/xlink" x="0px" y="0px" viewBox="0 0 1000 1000" enable-background="new 0 0 1000 1000" xml:space="preserve">
<metadata> Svg Vector Icons : http://www.onlinewebfonts.com/icon </metadata>
<g><path d="M715.2,715.2L715.2,715.2l-0.9,0.6c-33.1,33.7-73.4,60.5-117.5,79.3c-42.7,17.3-90.1,27.4-139.6,27.4c-49.8,0-96.9-10.1-139.9-27.4c-44.4-18.8-84.7-46.2-118.1-79.9h-0.3h0.3c-33.7-34.3-60.9-73.9-79.6-118.7l-0.6-1.5c-17.3-42.3-26.5-89.4-26.5-137.8c0-49.8,9.5-96.6,27.1-139.8c18.8-44.1,45.6-84.4,79.6-117.5c66.2-66.8,156.9-107.6,258-107.6c49.5,0,96.9,10.4,139.6,27.4c44.7,19.1,84.7,45.9,118.4,80.2l2.1,1.8c32.8,32.5,58.8,72.5,77.3,115.7l0.9,2.4c17,42.6,26.8,88.6,26.8,137.5c0,49.5-9.8,96.9-27.7,139.2C776,641.8,748.9,682.1,715.2,715.2z M977.7,920.3L800.5,742.9c28.6-34.6,52.5-72.8,69.8-114.8c21.8-52.5,33.7-110.6,33.7-170.8c0-59.6-11.9-116-32.8-168.5l-0.9-2.4c-22.4-53.7-54.9-102.3-95.2-143.1l-2.1-1.8c-40.6-41.1-90.4-74.2-145-97.2C575.3,22.5,517.4,10,457.2,10C334,10,222.1,60.7,141.3,141.5c-41.5,40.8-74.6,90-97.5,144.9C22.2,339.8,10,397.3,10,457.3c0,59.3,12.2,116.9,33.1,169.1l0.6,1.8c23,55.2,56.1,104.7,97.5,145.5c41.2,41.1,90.1,74.2,145,96.6c52.8,22.1,110.7,33.7,170.9,33.7c60.3,0,118.4-11.6,170.9-33.7c42.1-17.3,80.5-40.8,114.8-69.5l177.5,177.4c16.1,15.8,41.8,15.8,57.3,0C994.1,962.3,994.1,936.4,977.7,920.3z"/></g>
</svg>