<?xml version="1.0" encoding="UTF-8"?>
<!DOCTYPE svg PUBLIC "-//W3C//DTD SVG 1.1//EN" "http://www.w3.org/Graphics/SVG/1.1/DTD/svg11.dtd">
<svg
	xmlns="http://www.w3.org/2000/svg"
	xml:space="preserve"
	style="shape-rendering:geometricPrecision; text-rendering:geometricPrecision; image-rendering:optimizeQuality; fill-rule:evenodd; clip-rule:evenodd"
	viewBox="180 0 1300 860"
 	xmlns:xlink="http://www.w3.org/1999/xlink">

<defs>
	<style>
	@font-face{
    	font-family:Roboto;
    	src:local(Roboto Regular),
        	url(/font/roboto/Roboto-Regular.eot);
    		src:url(/font/roboto/Roboto-Regular.eot?#iefix) format("embedded-opentype"),
        	url(/font/roboto/Roboto-Regular.woff2) format("woff2"),
        	url(/font/roboto/Roboto-Regular.woff) format("woff"),
        	url(/font/roboto/Roboto-Regular.ttf) format("truetype");
    	font-weight:300;
    	font-display: swap;
	}
	text{
		font-family: Roboto;
	}
	g:not(:hover) > .mask{
		display: none;
	}
	.controls{
		stroke: white;
		cursor: pointer;
		filter:url(#dropshadow);
	}
	.controls > rect{
		fill: #FFFFFF05;
		stroke-width: 2px;
	}
	polyline{
		fill: none;
		stroke-width: 1px;
	}
	circle{
		fill: #FFF;
		stroke-width: 0;
	}
	</style>

	<image id="front" xlink:href="/img/vehicles/lancer/front.webp" x="0" y="0" width="1680"/>
	<image id="mask" xlink:href="/img/vehicles/lancer/mask.webp" width="1680"/>

	<filter id="dropshadow" height="130%">
	  	<feGaussianBlur in="SourceAlpha" stdDeviation="3"/>
		<feOffset dx="3" dy="3" result="offsetblur"/>
		<feComponentTransfer>
			<feFuncA type="linear" slope="0.3"/>
  		</feComponentTransfer>
  		<feMerge> 
	    	<feMergeNode/>
    		<feMergeNode in="SourceGraphic"/>
  		</feMerge>
	</filter>

	<clipPath id="headlight">
    	<path d="M504 285c-3,1 -5,1 -8,2 -3,1 -5,2 -8,3 0,4 2,9 2,14 5,21 13,15 33,15 11,0 21,0 32,-1 9,-2 17,7 51,3 7,-1 16,-1 24,-2 7,-1 14,-3 22,-3 8,0 15,-2 24,-2l10 -21c1,-3 2,-5 3,-8 3,-7 8,-17 6,-23 -4,-6 -5,-5 -8,-5 -15,0 -25,2 -37,2l-83 10c-7,2 -60,8 -63,14l0 2z"/>
		<rect x="470" y="546" width="130" height="130"/>
	</clipPath>
	<clipPath id="hood">
        <path d="M843 182c-8,2 -30,5 -37,5 -7,0 -12,-1 -20,-1 -7,0 -12,1 -20,1 -14,0 -28,0 -42,0l-62 1c-3,0 -7,0 -10,0 -4,0 -5,1 -10,1 -12,0 -28,1 -40,2 -12,1 -29,0 -40,2 -14,2 -11,-1 -18,-1 -10,-1 -3,1 -14,-1 -4,-1 0,-1 -4,0l-73 11c-13,2 -24,4 -35,7 -41,9 -62,18 -95,41 -9,5 -19,6 -27,15 -1,3 -4,5 -2,7 2,2 0,2 6,-2 2,-1 4,-3 7,-4 15,-11 44,-7 55,-8 6,-1 11,0 19,0 47,0 73,-3 112,14 24,10 13,8 31,5 27,-4 45,-8 73,-11 32,-4 26,-4 51,-12 24,-8 56,-20 80,-25 24,-5 45,-10 70,-14l34 -8c4,-1 11,-4 12,-9 3,-6 2,-11 -1,-16z"/>
        <rect x="480" y="717" width="120" height="120"/>
	</clipPath>
	<clipPath id="roof">
        <path d="M1274 212c5,-1 4,-1 5,-1 -1,-5 -2,-12 2,-15 4,-3 9,-1 14,5 1,3 2,5 4,5 2,1 4,0 8,0 6,0 5,9 5,10 -1,1 -4,2 -8,2 -4,0 -3,6 -5,9 -2,3 -4,4 -9,2 -5,-2 -7,-6 -8,-8 -4,0 -8,0 -10,-2 -1,-2 -3,-6 2,-7zm-164 12c6,-1 6,-1 6,-1 0,-5 0,-12 4,-14 4,-2 9,-4 15,3 6,7 4,5 5,8 3,-1 7,-2 12,-2 5,0 6,9 3,11 -3,2 -4,3 -11,3 -3,1 -4,7 -6,10 -2,3 -7,5 -13,3 -6,-2 -6,-8 -7,-10 -4,0 -9,0 -11,-2 -2,-2 -3,-8 3,-9z"/>
        <rect x="1080" y="717" width="120" height="120"/>
	</clipPath>
	<clipPath id="front-fender">
        <path d="M846 188c0,15 -5,16 -17,20 -10,2 -20,4 -30,6 -9,2 -20,4 -30,6 -33,8 -52,10 -86,22 -15,5 -41,15 -55,18l0 2c12,0 32,-4 55,-4 7,0 12,-1 12,9 0,8 -10,26 -14,34 -1,3 -1,3 -2,6l-2 4c-1,3 12,0 19,-1 19,-4 42,-6 63,-7 29,-1 18,1 35,-11 38,-24 88,-3 102,37 7,18 10,34 11,56l-3 39c7,3 19,-1 30,-3 1,-10 3,-17 3,-30 0,-12 1,-21 1,-32 0,-17 1,-83 2,-98 1,-10 -2,-34 -2,-46 0,-15 1,-13 -18,-14 -15,-1 -8,-13 -4,-19 -3,-4 -20,-18 -25,-21 -4,1 -18,12 -22,15 -4,2 -9,3 -13,5 -17,4 -10,-2 -10,7z"/>
        <path d="M1397 219l0 0zm-65 -23c0,-4 3,-3 12,-3 11,0 11,7 14,15 6,12 10,15 10,20 0,6 -18,5 -21,2 -3,-3 -15,-24 -15,-34zm65 23c1,1 1,0 3,1 0,-8 0,-13 -2,-19 -1,-10 0,-11 -6,-16 -6,-5 -4,-6 -13,-8 -7,-1 -13,-2 -19,-3 -10,-1 -16,-3 -23,-9l-54 -43c-2,-2 -3,-3 -5,-5l-60 -38c-5,-2 -12,-7 -16,-2 10,2 27,13 36,20 4,2 5,3 8,6l16 12c17,15 38,31 43,55 0,3 2,9 3,11 2,4 4,3 6,9 1,3 5,44 4,50 -3,21 -5,27 -14,43 -1,4 -3,6 -5,9 -12,19 -17,38 -25,59 -2,4 -4,6 -4,11 4,-1 1,-1 5,0 5,0 3,-1 7,-1 0,-6 5,-23 7,-28 4,-13 14,-37 24,-46l10 -8c27,-13 39,7 46,7 5,0 16,-4 19,-7 5,-4 6,-20 7,-28 1,-9 4,-22 2,-32z"/>
        <rect x="630" y="717" width="120" height="120"/>
	</clipPath>
	<clipPath id="threshold">
		<path d="M904 425c-2,8 -2,17 -4,26 -3,11 -3,-1 -3,10 13,0 12,6 19,8l74 -9c34,-4 68,-6 101,-10l186 -21c5,-2 -2,-5 -2,-8 0,-7 1,-9 1,-15l3 -29c1,-4 2,-10 2,-15 -13,-3 -12,0 -15,5 -12,28 -36,25 -68,27 -16,1 -33,4 -49,5 -28,2 -69,8 -98,10 -8,1 -17,2 -24,3 -17,2 -33,2 -49,5l-25 2c-29,1 -25,6 -49,6z"/>
	</clipPath>
	<clipPath id="fuel-cap">
		<path d="M1331 195c0,9 12,31 15,35 3,5 11,2 20,2 6,-9 0,-8 -9,-31 -5,-10 -8,-8 -23,-8 -2,0 -3,1 -3,2z"/>
		<rect x="1250" y="707" width="120" height="120"/>
	</clipPath>
	<clipPath id="doors">
		<path class="st0" d="M1318.4,233.9c-1-9-3-44-6-47c-3-4-4-5-6-7c-0.1-1.3-0.3-2.6-0.6-3.9l-9.8,0l-132,4c-8-32-12-46-16-60 s-14-43-14-43s-3-6,0-5c20,0,25,1,45,5c40,7,65,29,78,40c12.9,10.9,39.7,33.8,39,58.6l9.8,0.1c-3.2-17.3-14.8-32.4-20.4-38.9 c-6.9-7.9-22-22-34-31s-28-20-43-27c-15-6-35-13-60-15s-70-4-91-1c-21,2-29,3-48,13c-22,12-47,38-65,56c-11,12-16,15-15,34 c9-7,17-17,25-24h-1c19-20,23-25,33-33s27-27,62-33c35-5,40-5,55-5c5,11,14,43,16,53s12,47,12,57l-101,5c-2,2-16.2,7.2-27,7.9 c-6,0.4-26.8,0.6-39,0.1c-2,1,0,3,0,4c-7,1-30,1-32,3c1,0,4,0,5,5c0,5,3,34,2,48c-1,13,1,23,0,41c-1,19-1,89-6,126c13-2,23-3,35-4 c11,0,182-18,182-18c22-1,57-6,69-6c13-1,36-4,45-22c8-19,16-41,19-48s12-29,20-40C1312.4,271.9,1319.4,242.9,1318.4,233.9z"/>
		<rect x="930" y="717" width="120" height="120"/>
	</clipPath>
	<clipPath id="glasses">
		<path d="M1134 72c-3,-1 0,5 0,5 0,0 10,29 14,43 4,14 8,28 16,60 15,-1 92,-4 132,-4 1,-25 -26,-48 -39,-59 -13,-11 -38,-33 -78,-40 -20,-4 -25,-5 -45,-5zm-30 -1c5,11 14,43 16,53 2,10 12,47 12,57 -22,1 -63,4 -101,5 4,-5 5,-10 5,-15 0,-4 -1,-14 -6,-22 -4,-9 -14,-9 -18,-10 -4,0 -30,-1 -37,0 -7,0 -12,2 -17,7 -1,-1 -3,-3 -4,-4 19,-20 23,-25 33,-33 10,-8 27,-27 62,-33 35,-5 40,-5 55,-5zm-111 -3c-25,-2 -57,-2 -89,-1 -32,1 -120,6 -155,15 -34,10 -41,15 -62,27 -22,12 -94,56 -104,62 -10,6 -23,15 -27,21 3,0 7,0 8,0 2,0 -3,-3 -2,-5 2,-2 15,-1 17,-2 3,0 2,-1 4,-1 1,1 -2,2 1,2 3,0 6,1 13,0 6,-1 60,-6 72,-5 12,0 0,-2 8,-3 7,0 10,0 11,0 1,0 0,-2 2,-2 3,0 1,2 3,2 1,1 88,1 94,1 6,1 1,0 8,1 6,0 5,0 16,1 11,2 7,-1 15,3 8,4 12,0 18,-1 5,0 21,-1 47,-22 25,-21 69,-66 80,-76 11,-9 16,-10 22,-17z"/>
		<rect x="1080" y="546" width="130" height="130"/>
	</clipPath>
	<clipPath id="bumpers">
		<path d="M517 395c7,-2 64,1 77,1 12,0 29,0 36,4 7,4 12,17 12,29 0,24 -17,20 -41,20 -11,0 -23,0 -33,-1 -11,-1 -25,2 -33,-2 -8,-6 -18,-40 -18,-51zm-224 -105c4,-3 2,-6 15,-7 27,-2 89,-1 114,3 17,3 16,4 21,17 6,12 16,42 20,55 1,5 3,9 4,15 5,16 18,63 18,77 0,9 -24,4 -33,3l-74 -7c-24,-2 -75,-7 -96,-12l0 -55 4 -52 5 -23c0,-1 1,-4 1,-4 0,-3 0,1 0,-2 -1,-2 0,-1 -1,-2 -1,4 -2,9 -3,11 -3,7 -16,5 -20,14 -3,8 7,17 -4,19 -7,1 -20,4 -25,4 2,8 0,12 9,15 5,2 14,4 21,4 -1,11 -4,9 7,14l2 43c-7,4 -12,8 -16,16 -4,5 -4,4 -9,7 -5,2 -8,2 -9,8 4,6 7,9 12,9 24,2 61,12 92,13l57 6c7,1 13,0 20,1 18,2 50,5 68,5 5,0 6,1 10,1 24,1 47,1 71,1 15,0 27,-1 41,-1 8,0 12,-1 20,-1l21 -1c5,-1 13,0 20,-1 6,-1 13,-2 18,-3 10,-1 33,-1 39,-4 0,-6 -1,-16 0,-18 -3,-1 -1,-1 -5,-1 0,-29 6,-64 13,-90 5,-17 20,-46 32,-58 3,-2 5,-3 6,-7l-50 3c-16,3 -31,5 -47,7 -27,3 -73,9 -99,9 -13,0 -21,-5 -34,-4 -15,2 -30,2 -46,2 -11,0 -14,-18 -14,-30 5,-1 11,-3 16,-4 0,-3 0,-2 -1,-4l5 0c-1,-4 -1,-2 -11,-6 -14,-6 -23,-10 -39,-13 -20,-2 -76,-6 -97,-4 -21,2 -41,-2 -60,10 -3,2 -8,4 -9,8 -3,6 0,8 0,14z"/>
		<path d="M1363 288c1,5 2,2 7,11 14,22 13,54 11,79 -1,8 -7,17 -1,17 2,0 5,-3 8,-4 7,-3 12,-2 16,-8 2,-2 3,-5 4,-8 9,-23 8,-40 10,-62 1,-9 2,-13 2,-24 0,-3 -8,-12 -10,-15 -4,-9 -5,-44 -5,-47 -1,-3 -6,-10 -9,-9 -4,1 2,0 1,7l-5 40c-1,9 -2,14 -9,17 -7,4 -13,2 -20,6z"/>
		<rect x="310" y="707" width="120" height="120"/>
	</clipPath>
	<clipPath id="grille">
		<path d="M280 381c0,16 -1,30 1,44 2,6 0,2 -1,7 4,3 1,4 16,6 33,4 67,7 100,11l42 3c19,0 41,8 46,1 5,-5 -5,-38 -7,-45 -1,-7 -2,-13 -4,-19l-11 -34c-3,-12 -17,-56 -25,-64 -9,-9 -36,-7 -48,-8 -16,-1 -37,-3 -52,-2 -39,2 -41,-2 -47,20l-6 39c-1,7 -2,12 -2,20 0,4 0,7 -1,10 0,5 -1,6 -1,11z"/>
		<path d="M611 450c13,0 24,0 31,-10 3,-6 1,-17 -1,-23 -2,-6 -4,-14 -11,-18 -10,-5 -88,-5 -106,-5 -9,0 -9,-1 -6,13 3,8 8,27 12,33 7,12 19,9 36,9 8,0 13,1 22,1 8,0 15,0 23,0z"/>
		<rect x="290" y="536" width="140" height="140"/>
	</clipPath>
	<clipPath id="brakes">
		<path d="M784 426c2,-6 26,-31 3,-51 -12,-10 -12,-3 -12,6 0,5 -1,10 -1,13 1,7 3,24 6,29 2,4 0,3 4,3z"/>
		<path d="M782 348c1,2 2,3 4,4 7,7 7,3 13,2 4,0 4,1 9,1 3,0 6,-19 6,-24 -7,-4 -4,-4 -15,-4 -8,0 -15,14 -17,21z"/>
		<path d="M793 443c5,0 3,1 12,1 3,0 16,-6 16,-8 0,-3 -3,-8 -5,-11 -1,-2 -1,-4 -2,-6 -2,-3 -1,-3 -5,-3 -4,16 -8,16 -16,27z"/>
		<path d="M827 356c0,1 1,2 2,2 3,1 10,-4 12,-5 -1,-4 -4,-8 -6,-11 -2,-3 -1,-1 -2,-4l-3 0c0,8 -3,10 -3,18z"/>
		<path d="M838 424c1,-2 3,-4 4,-7 1,-3 2,-6 3,-9 -2,-1 -4,-1 -6,-2 -2,3 -5,4 -5,8 0,1 1,4 2,5l2 5z"/>
		<path d="M843 377c0,9 -1,10 4,11 2,-9 1,-8 0,-15 -2,1 -4,1 -4,4z"/>
		<rect x="780" y="717" width="120" height="120"/>
	</clipPath>
	<clipPath id="rims">
		<path d="M794 443c1,-3 2,-3 4,-6 5,-4 11,-13 11,-20l4 0c1,12 19,19 -5,26 -7,2 -7,0 -14,0zm44 -19c-4,-9 -5,-12 2,-17 2,1 3,1 5,2 0,6 -3,13 -7,15zm-63 -36l1 -14c3,-10 20,11 20,17 0,12 -3,20 -9,29 -3,4 -3,5 -6,6 0,-4 -6,-13 -6,-38zm68 -12l4 -3 0 15c-3,-2 -2,-1 -3,-5 -1,-2 -1,-4 -1,-7zm-15 -22c0,-8 3,-9 3,-16 4,3 8,10 9,15 -3,1 -4,3 -7,4 -3,2 -5,3 -5,-3zm-27 0c-9,0 -6,4 -11,0 -2,-1 -7,-4 -7,-6 0,-6 8,-21 19,-21 15,0 11,10 9,21 -2,10 -2,6 -10,6zm-30 30c0,27 2,47 19,70 11,15 29,26 48,21 19,-4 31,-15 41,-32 9,-16 14,-40 14,-60 0,-33 -21,-84 -62,-84 -20,0 -36,15 -44,28 -10,15 -16,37 -16,57z"/>
		<path d="M1307 352c0,21 2,32 9,48 12,29 36,36 54,4 17,-29 11,-109 -25,-114 -6,0 -15,4 -18,7 -14,14 -20,33 -20,55z"/>
		<rect x="780" y="576" width="120" height="120"/>
	</clipPath>
	<clipPath id="tires">
		<path d="M771 395c0,-12 1,-24 4,-34 13,-67 72,-80 101,-33 21,33 21,82 1,117 -22,38 -65,41 -89,6 -8,-13 -17,-36 -17,-56zm-44 62c3,1 1,1 5,1l0 18c-7,1 -16,2 -23,3 3,4 13,10 19,12 12,4 27,6 40,6l30 2c13,1 30,-1 41,-4 9,-4 16,-11 22,-16 3,-2 3,-1 5,-3 2,-4 4,-6 7,-9 26,-28 32,-85 20,-123 -4,-15 -11,-30 -21,-41 -20,-21 -41,-29 -70,-16 -26,12 -37,30 -50,55 -4,7 -8,16 -11,24 -4,14 -8,29 -10,42l-3 32c0,6 -1,11 -1,17z"/>
		<path d="M1308 361c0,-25 1,-45 19,-62 17,-18 36,-2 44,17 9,25 12,61 0,86 -8,15 -24,29 -38,19 -18,-12 -25,-38 -25,-60zm-30 67l-24 3c-4,0 -5,1 -8,1l0 2c12,3 -2,3 23,5 18,2 66,5 77,-1 13,-6 21,-16 27,-29 11,-27 10,-44 10,-72 0,-4 -1,-6 -2,-11 -1,-3 -2,-7 -3,-10 0,-4 -1,-8 -3,-10l-4 -9c-3,-4 -9,-11 -13,-13 -46,-32 -69,40 -76,74 -5,23 -6,37 -7,61 0,5 -2,1 1,4 1,3 1,1 2,5z"/>
		<rect x="630" y="576" width="120" height="120"/>
	</clipPath>
	<clipPath id="mirrors">
		<path d="M956 146l0 -5c-8,2 -17,19 -26,24 3,11 -1,19 3,36 3,0 7,0 10,0 15,0 1,-1 18,-2 4,0 5,0 5,-5 17,0 58,2 66,-8 3,-4 5,-11 4,-19 -2,-11 1,-11 -6,-18 -4,-6 -5,-7 -14,-9 -6,-2 -40,-3 -44,-2 -13,4 -9,4 -16,8z"/>
		<path d="M567 175c6,-3 13,-7 19,-11 5,-3 17,-9 19,-11 -10,0 -13,2 -24,6 -9,4 -12,6 -14,16z"/>
		<rect x="930" y="576" width="120" height="120"/>
	</clipPath>
	<clipPath id="spoiler">
 		<path d="M1260 103c22,0 41,0 51,0 10,0 5,0 12,0 8,0 32,-2 39,-3 8,0 20,-1 23,-1 3,0 9,-1 10,-3 1,-3 4,-2 11,-2 7,0 15,1 20,1 5,0 6,1 5,7 -2,5 -5,13 -6,14 -1,2 -7,6 -10,6 -4,0 -7,0 -10,0 -3,0 -5,-1 -6,-4 -1,-3 -2,-7 -3,-9 -1,-2 -7,-1 -11,-1 -4,1 -26,3 -30,3 -5,0 -5,0 -5,3 0,3 -1,4 -1,8 0,4 -2,0 -2,7 0,7 -4,33 -1,37 2,5 3,5 2,5 -1,0 -19,-8 -20,-10 -2,-2 7,-29 7,-34 0,-4 -1,-9 -1,-12 -2,-2 0,-3 -8,-3 -8,0 -47,1 -55,1 -2,-2 -6,-6 -11,-10z"/>
 		<rect x="1250" y="536" width="140" height="140"/>
	</clipPath>
</defs>

<use x="0" y="0" xlink:href="#front"/>

<g>
	<use class="mask" x="0" y="0" xlink:href="#mask" clip-path="url(#bumpers)"/>
	<rect x="310" y="707" width="120" height="34" fill="black"/>
	<text x="320" y="730" fill="white" font-size="18">Stoßstangen</text>
	<a class="controls" xlink:href="/stossstangen-zierleisten" href="/stossstangen-zierleisten" target="_parent">
		<rect x="310" y="707" width="120" height="120"/>
		<polyline points="430,777 450,777 450,465 500,465"/>
		<circle cx="500" cy="465" r="5"/>
	</a>
</g>
<g>
	<use class="mask" x="0" y="0" xlink:href="#mask" clip-path="url(#grille)"/>
	<rect x="290" y="536" width="140" height="34" fill="black"/>
	<text x="310" y="560" fill="white" font-size="20">Kühlergrills</text>
	<a class="controls" xlink:href="/front-kuehlergrills" href="/front-kuehlergrills" target="_parent">
		<rect x="290" y="536" width="140" height="140"/>
		<polyline points="360,536 360,310 "/>
		<circle cx="360" cy="310" r="5"/>
	</a>
</g>
<g>
	<use class="mask" x="0" y="0" xlink:href="#mask" clip-path="url(#headlight)"/>
	<rect x="470" y="546" width="130" height="34" fill="black"/>
	<text x="492" y="570" fill="white" font-size="20">Leuchten</text>
	<a class="controls" xlink:href="/lichter-leuchten" href="/lichter-leuchten" target="_parent">
		<rect x="470" y="546" width="130" height="130"/>
		<polyline points="535,546 535,523 570,523 570,290"/>
		<circle cx="570" cy="290" r="5"/>
	</a>
</g>
<g>
	<use class="mask" x="0" y="0" xlink:href="#mask" clip-path="url(#hood)"/>
	<rect x="480" y="717" width="120" height="34" fill="black"/>
	<text x="486" y="740" fill="white" font-size="18">Motorhauben</text>
	<a class="controls" xlink:href="/motorhauben-teile" href="/motorhauben-teile" target="_parent">
		<rect x="480" y="717" width="120" height="120"/>
		<polyline points="600,777 615,777 615,210"/>
		<circle cx="615" cy="210" r="5"/>
	</a>
</g>
<g>
	<use class="mask" x="0" y="0" xlink:href="#mask" clip-path="url(#tires)"/>
	<rect x="630" y="576" width="120" height="34" fill="black"/>
	<text x="660" y="600" fill="white" font-size="20">Reifen</text>
	<a class="controls" xlink:href="/reifen" href="/reifen" target="_parent">
		<rect x="630" y="576" width="120" height="120"/>
		<polyline points="690,576 690,523 740,523 740,440 "/>
		<circle cx="740" cy="440" r="5"/>
	</a>
</g>
<g>
	<use class="mask" x="0" y="0" xlink:href="#mask" clip-path="url(#front-fender)"/>
	<rect x="630" y="717" width="120" height="34" fill="black"/>
	<text x="648" y="742" fill="white" font-size="20">Kotflügel</text>
	<a class="controls" xlink:href="/kotfluegel-seitenwaende" href="/kotfluegel-seitenwaende" target="_parent">
		<rect x="630" y="717" width="120" height="120"/>
	</a>
</g>
<g>
	<use class="mask" x="0" y="0" xlink:href="#mask" clip-path="url(#rims)"/>
	<rect x="780" y="576" width="120" height="34" fill="black"/>
	<text x="810" y="600" fill="white" font-size="20">Felgen</text>
	<a class="controls" xlink:href="/felgen" href="/felgen" target="_parent">
		<rect x="780" y="576" width="120" height="120"/>
		<polyline points="840,576 840,365"/>
		<circle cx="840" cy="365" r="5"/>
	</a>
</g>
<g>
	<use class="mask" x="0" y="0" xlink:href="#mask" clip-path="url(#brakes)"/>
	<rect x="780" y="717" width="120" height="34" fill="black"/>
	<text x="788" y="740" fill="white" font-size="18">Bremsenteile</text>
	<a class="controls" xlink:href="/bremsenteile" href="/bremsenteile" target="_parent">
		<rect x="780" y="717" width="120" height="120"/>
		<polyline points="780,777 766,777 766,400 786,400"/>
		<circle cx="786" cy="400" r="5"/>
	</a>
</g>
<g>
	<use class="mask" x="0" y="0" xlink:href="#mask" clip-path="url(#doors)"/>
	<rect x="930" y="717" width="120" height="34" fill="black"/>
	<text x="962" y="740" fill="white" font-size="20">Türen</text>
	<a class="controls" xlink:href="/tueren" href="/tueren" target="_parent">
		<rect x="930" y="717" width="120" height="120"/>
		<polyline points="1050,777 1065,777 1065,340 "/>
		<circle cx="1065" cy="340" r="5"/>
	</a>
</g>
<g>
	<use class="mask" x="0" y="0" xlink:href="#mask" clip-path="url(#mirrors)"/>
	<rect x="930" y="576" width="120" height="34" fill="black"/>
	<text x="935" y="600" fill="white" font-size="18">Außenspiegel</text>
	<a class="controls" xlink:href="/aussenspiegel-zubehoer" href="/aussenspiegel-zubehoer" target="_parent">
		<rect x="930" y="576" width="120" height="120"/>
		<polyline points="990,576 990,170 "/>
		<circle cx="990" cy="170" r="5"/>
	</a>
</g>
<g>
	<use class="mask" x="0" y="0" xlink:href="#mask" clip-path="url(#glasses)"/>
	<rect x="1080" y="546" width="130" height="34" fill="black"/>
	<text x="1110" y="570" fill="white" font-size="20">Fenster</text>
	<a class="controls" xlink:href="/fenster-windschutzscheibe" href="/fenster-windschutzscheibe" target="_parent">
		<rect x="1080" y="546" width="130" height="130"/>
		<polyline points="1145,546 1145,140 "/>
		<circle cx="1145" cy="140" r="5"/>
	</a>
</g>
<g>
	<use class="mask" x="0" y="0" xlink:href="#mask" clip-path="url(#roof)"/>
	<rect x="1080" y="717" width="120" height="34" fill="black"/>
	<text x="1100" y="740" fill="white" font-size="20">Türgriffe</text>
	<a class="controls" xlink:href="/tuergriffe-aussen" href="/tuergriffe-aussen" target="_parent">
		<rect x="1080" y="717" width="120" height="120"/>
	</a>
</g>
<g>
	<use class="mask" x="0" y="0" xlink:href="#mask" clip-path="url(#spoiler)"/>
	<rect x="1250" y="536" width="140" height="34" fill="black"/>
	<text x="1290" y="560" fill="white" font-size="20">Spoiler</text>
	<a class="controls" xlink:href="/spoiler" href="/spoiler" target="_parent">
		<rect x="1250" y="536" width="140" height="140"/>
		<polyline points="1320,536 1320,506 1380,506 1380,103"/>
		<circle cx="1380" cy="103" r="5"/>
	</a>
</g>
<g>
	<use class="mask" x="0" y="0" xlink:href="#mask" clip-path="url(#fuel-cap)"/>
	<rect x="1250" y="707" width="120" height="34" fill="black"/>
	<text x="1260" y="732" fill="white" font-size="20">Tankdeckel</text>
	<a class="controls" xlink:href="/tankdeckel" href="/tankdeckel" target="_parent">
		<rect x="1250" y="707" width="120" height="120"/>
		<polyline points="1250,767 1230,767 1230,210 1345,210"/>
		<circle cx="1345" cy="210" r="5"/>
	</a>
</g>

</svg>